# xmcd
#
# Track frame offsets:
#	150
#	14411
#	27919
#	39012
#	52254
#	62797
#	77400
#	91713
#	107103
#	121543
#	134928
#	147646
#	159421
#	172644
#	185482
#	197775
#	210969
#	223354
#	234199
#	245532
#	260840
#	275349
#	289414
#	302432
#	316018
#
# Disc length: 4401 seconds
# Revision: 1
# Processed by: cddbd v1.5.2PL0 Copyright (c) Steve Scherf et al.
# Submitted via: dBpowerAMP V12.0
#
DISCID=61112f19
DTITLE=Various Artist - Let Me Tell You About The Blues - Detroit
DYEAR=1951
DGENRE=Blues
TTITLE0=John Lee Hooker - I'm In The Mood
TTITLE1=Eddie Kirkland - It's Time For Lovin' To Be Done
TTITLE2=Robert Henry - Old Battle Ax
TTITLE3=L.C. Green - 38 Pistol Blues
TTITLE4=John Lee Hooker - I'm A Boogie Man
TTITLE5=Playboy Fuller - Sugar Cane Highway
TTITLE6=Eddie Burns - Hello Miss Jessie Lee
TTITLE7=L.C. Green - Hastings Street Boogie
TTITLE8=Playboy Fuller - Gonna Play My Guitar
TTITLE9=Eddie Burns - Dealing With The Devil
TTITLE10=Eddie Kirkland - No Shoes
TTITLE11=Sam Kelly - Ramblin' Around Blues
TTITLE12=L.C. Green - Goin' Down To The River Blues
TTITLE13=Baby Boy Warren - Sanafee (Not Welcome Anymore)
TTITLE14=Johnny Howard - Natrual Man Blues
TTITLE15=John Brim - Bus Driver
TTITLE16=Baby Boy Warren - Hello Stranger
TTITLE17=Henry Smith - Good Rockin' Mama
TTITLE18=Johnny Howard - Dark Night Blues
TTITLE19=Henry Smith - Lonesome Blues
TTITLE20=Baby Boy Warren - Chicken
TTITLE21=One String Sam - I Need A $100.00
TTITLE22=Washboard Willie - Washboard Blues Part 2
TTITLE23=Calvin Frazier - Rock House
TTITLE24=One String Sam - My Baby OOO
EXTD=
EXTT0=
EXTT1=
EXTT2=
EXTT3=
EXTT4=
EXTT5=
EXTT6=
EXTT7=
EXTT8=
EXTT9=
EXTT10=
EXTT11=
EXTT12=
EXTT13=
EXTT14=
EXTT15=
EXTT16=
EXTT17=
EXTT18=
EXTT19=
EXTT20=
EXTT21=
EXTT22=
EXTT23=
EXTT24=
PLAYORDER=
